<svg xmlns="http://www.w3.org/2000/svg" viewBox="0 0 246.97 62.85"><defs><style>.cls-1{fill:#fff;}</style></defs><title>logo_white</title><g id="Layer_2" data-name="Layer 2"><g id="Layer_1-2" data-name="Layer 1"><g id="Logo_white"><path class="cls-1" d="M41.15,9.26v2.21H36.42V26.21H33.66V11.47H29V9.26Z"/><path class="cls-1" d="M56.66,9.26v17H53.9V18.6h-8v7.61H43.19v-17h2.74v7.11h8V9.26Z"/><path class="cls-1" d="M62.7,11.47v5.14h6.24v2.11H62.7V24h7v2.23H60v-17h9.69v2.21Z"/><path class="cls-1" d="M81.23,26.21,77,19.44h-2v6.77H72.33v-17h6a6.22,6.22,0,0,1,4.41,1.42,4.9,4.9,0,0,1,1.5,3.74,4.81,4.81,0,0,1-1.12,3.27,5.29,5.29,0,0,1-3.23,1.63l4.44,6.89ZM75.06,17.5h3c2.2,0,3.31-1,3.31-2.93a2.87,2.87,0,0,0-.81-2.17,3.47,3.47,0,0,0-2.5-.78h-3Z"/><path class="cls-1" d="M104.24,9.53V26.21h-2.75V13.7L96.66,26.21h-2.4L89.41,13.7V26.21H86.68V9.53H90l5.52,13.32,5.42-13.32Z"/><path class="cls-1" d="M117.64,22.54h-7.15l-1.3,3.67h-2.93L112.5,9.53h3.15l6.21,16.68h-2.93Zm-.77-2.12-2.81-7.92-2.81,7.92Z"/><path class="cls-1" d="M126.64,24.07h5.85v2.14H123.9v-17h2.74Z"/><path class="cls-1" d="M150.78,24A4.4,4.4,0,0,1,149,25.73a6.39,6.39,0,0,1-3,.65,7.49,7.49,0,0,1-3.1-.62,5.33,5.33,0,0,1-2.18-1.71,4.86,4.86,0,0,1-.94-2.55h2.93a3,3,0,0,0,1,1.9,3.06,3.06,0,0,0,2.22.79,2.64,2.64,0,0,0,1.93-.67,2.3,2.3,0,0,0,.68-1.73,2.19,2.19,0,0,0-.5-1.5,3.51,3.51,0,0,0-1.25-.92,20.94,20.94,0,0,0-2-.77,17.4,17.4,0,0,1-2.58-1,4.62,4.62,0,0,1-1.69-1.46,4.16,4.16,0,0,1-.7-2.52,4.22,4.22,0,0,1,2.6-4,7,7,0,0,1,2.87-.56,6.27,6.27,0,0,1,4.12,1.25A4.67,4.67,0,0,1,151,13.56h-3a2.77,2.77,0,0,0-2.91-2.33,2.76,2.76,0,0,0-1.84.59,2.08,2.08,0,0,0-.7,1.69,2.13,2.13,0,0,0,.48,1.43,3.32,3.32,0,0,0,1.21.89c.49.21,1.16.47,2,.75a19.16,19.16,0,0,1,2.63,1,4.84,4.84,0,0,1,1.72,1.5,4.3,4.3,0,0,1,.71,2.6A4.63,4.63,0,0,1,150.78,24Z"/><path class="cls-1" d="M156.85,11.47v5.14h6.24v2.11h-6.24V24h7v2.23h-9.69v-17h9.69v2.21Z"/><path class="cls-1" d="M179.22,10.68A7.73,7.73,0,0,1,182,15h-2.9a5.1,5.1,0,0,0-1.91-2.44,5.51,5.51,0,0,0-3.2-.9,5,5,0,0,0-2.7.74,5.13,5.13,0,0,0-1.87,2.13,7.12,7.12,0,0,0-.69,3.23,7.08,7.08,0,0,0,.69,3.2,5,5,0,0,0,1.87,2.12,4.94,4.94,0,0,0,2.7.75,5.51,5.51,0,0,0,3.2-.9,5.16,5.16,0,0,0,1.91-2.41H182a7.64,7.64,0,0,1-2.78,4.28A8.29,8.29,0,0,1,174,26.35a8.17,8.17,0,0,1-4.25-1.09,7.39,7.39,0,0,1-2.86-3.05,9.62,9.62,0,0,1-1-4.47,9.66,9.66,0,0,1,1-4.48,7.54,7.54,0,0,1,2.86-3.06A8.08,8.08,0,0,1,174,9.1,8.24,8.24,0,0,1,179.22,10.68Z"/><path class="cls-1" d="M187.36,9.26V19.32a4.92,4.92,0,0,0,1,3.36,3.57,3.57,0,0,0,2.8,1.1,3.52,3.52,0,0,0,2.77-1.1,4.92,4.92,0,0,0,1-3.36V9.26h2.73V19.32a7.12,7.12,0,0,1-1.8,5.27,6.45,6.45,0,0,1-4.75,1.79,6.33,6.33,0,0,1-4.7-1.79,7.15,7.15,0,0,1-1.78-5.27V9.26Z"/><path class="cls-1" d="M209.75,26.21l-4.23-6.77h-1.94v6.77h-2.74v-17h6a6.22,6.22,0,0,1,4.41,1.42,4.9,4.9,0,0,1,1.5,3.74,4.81,4.81,0,0,1-1.12,3.27,5.32,5.32,0,0,1-3.23,1.63l4.44,6.89Zm-6.17-8.71h3q3.32,0,3.32-2.93a2.87,2.87,0,0,0-.81-2.17,3.48,3.48,0,0,0-2.51-.78h-3Z"/><path class="cls-1" d="M217.93,9.26v17H215.2v-17Z"/><path class="cls-1" d="M232.14,9.26v2.21h-4.73V26.21h-2.76V11.47H220V9.26Z"/><path class="cls-1" d="M247,9.26,241.33,20v6.17h-2.76V20L232.91,9.26h3.16L240,17.11l3.89-7.85Z"/><path class="cls-1" d="M43.64,49.39a4.1,4.1,0,0,1,1,2.78,4.23,4.23,0,0,1-1.38,3.28,5.81,5.81,0,0,1-4,1.26H33.9V39.79h5.33A5.43,5.43,0,0,1,43,40.94a3.91,3.91,0,0,1,1.26,3,3.85,3.85,0,0,1-.92,2.69A4.1,4.1,0,0,1,41,47.92,4.42,4.42,0,0,1,43.64,49.39ZM35,47.52h4.2a4.31,4.31,0,0,0,3-.92,3.18,3.18,0,0,0,1-2.52,3.08,3.08,0,0,0-1-2.43,4.56,4.56,0,0,0-3.09-.9H35Zm7.4,7.26a3.65,3.65,0,0,0,0-5.38,5,5,0,0,0-3.29-1H35v7.35h4.13A5.06,5.06,0,0,0,42.38,54.78Z"/><path class="cls-1" d="M47.37,43.68l4.89,11.59L56.8,43.68H58L50.44,62.85H49.19l2.5-6.21-5.52-13Z"/><path class="cls-1" d="M79,39.79V56.71h-1.1V48.48H68v8.23H66.93V39.79H68v7.77h9.84V39.79Z"/><path class="cls-1" d="M91.93,44.31a5.77,5.77,0,0,1,2.3,2.32,8.16,8.16,0,0,1,0,7.13,5.75,5.75,0,0,1-2.3,2.31,7.13,7.13,0,0,1-6.6,0A5.74,5.74,0,0,1,83,53.74a7.94,7.94,0,0,1,0-7.11,5.83,5.83,0,0,1,2.3-2.32,7.21,7.21,0,0,1,6.6,0ZM86,45.09A4.77,4.77,0,0,0,84,47a7.14,7.14,0,0,0,0,6.37A4.68,4.68,0,0,0,86,55.29a5.8,5.8,0,0,0,5.26,0,4.7,4.7,0,0,0,2-1.92,7.27,7.27,0,0,0,0-6.37,4.71,4.71,0,0,0-2-1.91,5.93,5.93,0,0,0-5.28,0Z"/><path class="cls-1" d="M109.12,43.68v13H108V53.3A4.67,4.67,0,0,1,106.18,56a5.42,5.42,0,0,1-3.13.93,5,5,0,0,1-3.72-1.44,5.79,5.79,0,0,1-1.44-4.27V43.68h1v7.56a4.94,4.94,0,0,0,1.18,3.56A4.22,4.22,0,0,0,103.33,56a4.41,4.41,0,0,0,3.41-1.38A5.81,5.81,0,0,0,108,50.59V43.68Z"/><path class="cls-1" d="M120,44.6a4.57,4.57,0,0,1,1.48,3h-1a3.62,3.62,0,0,0-1.11-2.32,3.7,3.7,0,0,0-2.63-.92,3.36,3.36,0,0,0-2.29.72,2.39,2.39,0,0,0-.83,1.92,2,2,0,0,0,.49,1.41,2.84,2.84,0,0,0,1.2.78q.7.26,2,.57a15.73,15.73,0,0,1,2.28.65A3.47,3.47,0,0,1,121,51.45a3,3,0,0,1,.6,2,3.15,3.15,0,0,1-1.1,2.5,4.25,4.25,0,0,1-2.9,1,5.52,5.52,0,0,1-3.54-1.1,4.42,4.42,0,0,1-1.65-3h1.08a3.44,3.44,0,0,0,1.21,2.31,4.32,4.32,0,0,0,2.92.93,3,3,0,0,0,2.17-.74,2.47,2.47,0,0,0,.78-1.9,2.17,2.17,0,0,0-.5-1.5,2.93,2.93,0,0,0-1.26-.83,18.46,18.46,0,0,0-2-.55,19.69,19.69,0,0,1-2.24-.66,3.74,3.74,0,0,1-1.42-1,2.78,2.78,0,0,1-.58-1.86,3.11,3.11,0,0,1,1.13-2.53,4.48,4.48,0,0,1,3-1A4.82,4.82,0,0,1,120,44.6Z"/><path class="cls-1" d="M133.84,55a4.09,4.09,0,0,0,1.63-2.73h1.13a5.23,5.23,0,0,1-2,3.36,6.31,6.31,0,0,1-4.07,1.28,6.5,6.5,0,0,1-3.27-.81,5.76,5.76,0,0,1-2.25-2.31,8.25,8.25,0,0,1,0-7.13,5.78,5.78,0,0,1,2.25-2.32,6.6,6.6,0,0,1,3.27-.8,6.45,6.45,0,0,1,3.28.8,5.43,5.43,0,0,1,2.09,2.11,5.85,5.85,0,0,1,.71,2.8,7.24,7.24,0,0,1-.12,1.27H125.32a6.08,6.08,0,0,0,.75,3.06,4.63,4.63,0,0,0,1.9,1.83,5.63,5.63,0,0,0,2.56.58A5.44,5.44,0,0,0,133.84,55ZM128,45a4.69,4.69,0,0,0-1.91,1.82,6,6,0,0,0-.75,3h10.27a5.53,5.53,0,0,0-.6-3A4.39,4.39,0,0,0,133.12,45,5.89,5.89,0,0,0,128,45Z"/><path class="cls-1" d="M152.2,41.05A7.92,7.92,0,0,1,155,45H153.9a6.48,6.48,0,0,0-2.42-3.15,7.18,7.18,0,0,0-4.23-1.19,6.66,6.66,0,0,0-3.46.92,6.48,6.48,0,0,0-2.45,2.65,8.71,8.71,0,0,0-.9,4.06,8.58,8.58,0,0,0,.9,4,6.42,6.42,0,0,0,2.45,2.65,6.57,6.57,0,0,0,3.46.93,7.25,7.25,0,0,0,4.23-1.19,6.52,6.52,0,0,0,2.42-3.13H155a7.85,7.85,0,0,1-2.83,3.91,8.28,8.28,0,0,1-4.95,1.42,7.8,7.8,0,0,1-4.11-1.1,7.33,7.33,0,0,1-2.82-3.06,10.35,10.35,0,0,1,0-8.92,7.51,7.51,0,0,1,2.82-3.08,7.8,7.8,0,0,1,4.11-1.1A8.22,8.22,0,0,1,152.2,41.05Z"/><path class="cls-1" d="M167.44,44.31a5.75,5.75,0,0,1,2.29,2.32,8.07,8.07,0,0,1,0,7.13,5.72,5.72,0,0,1-2.29,2.31,6.73,6.73,0,0,1-3.31.81,6.66,6.66,0,0,1-3.29-.81,5.7,5.7,0,0,1-2.31-2.33,7.94,7.94,0,0,1,0-7.11,5.8,5.8,0,0,1,2.31-2.32,6.76,6.76,0,0,1,3.29-.8A6.84,6.84,0,0,1,167.44,44.31Zm-5.94.78a4.79,4.79,0,0,0-2,1.91,7.22,7.22,0,0,0,0,6.37,4.7,4.7,0,0,0,2,1.92,5.78,5.78,0,0,0,5.25,0,4.7,4.7,0,0,0,2-1.92,6.27,6.27,0,0,0,.74-3.19,6.34,6.34,0,0,0-.73-3.18,4.69,4.69,0,0,0-1.94-1.91,5.93,5.93,0,0,0-5.28,0Z"/><path class="cls-1" d="M193,44.85a5.92,5.92,0,0,1,1.38,4.25v7.61h-1.05V49.15a5.1,5.1,0,0,0-1.11-3.55,3.84,3.84,0,0,0-3-1.23,4.23,4.23,0,0,0-3.3,1.37,5.8,5.8,0,0,0-1.24,4v6.94h-1.05V49.15a5.11,5.11,0,0,0-1.12-3.55,3.9,3.9,0,0,0-3-1.23,4.19,4.19,0,0,0-3.27,1.37,5.8,5.8,0,0,0-1.24,4v6.94h-1.08v-13h1.08v3.38a4.53,4.53,0,0,1,1.77-2.72,5,5,0,0,1,3-.93,5,5,0,0,1,3.06,1,4.73,4.73,0,0,1,1.69,2.9,4.77,4.77,0,0,1,1.81-2.9,5.31,5.31,0,0,1,3.13-1A4.74,4.74,0,0,1,193,44.85Z"/><g id="logo_white-2" data-name="logo_white"><path class="cls-1" d="M7.57,0S-1.82-1.34.32,16.79,3.11,40.56,3.11,40.56s1.05,6,4.46,6.16c0,0,3.94,1.54,5-7.52s2.76-22.58,2.76-22.58S18.86,1.05,7.57,0Zm3.67,30.47S10.2,37,9.78,41.56s-2,3.76-2,3.76C6.41,45.24,6,42.25,6,42.25s-.26-2.83-1.12-11.89c-.11-1.22-.2-2.28-.23-3.19A8.85,8.85,0,0,1,5,23.75,3.12,3.12,0,0,1,7.92,21.6c1.9,0,2.45.81,3.13,2.37C12.1,26.39,11.24,30.49,11.24,30.49ZM12.1,18H10v-.76h2.1Zm0-2.9H10v-.71h2.1Zm2.11-2.7H10v-.71h4.21Zm0-2.75H10v-.8h4.21Z"/><path class="cls-1" d="M7.92,49.63a6.61,6.61,0,1,0,6.61,6.61A6.61,6.61,0,0,0,7.92,49.63Zm0,11.19a4.58,4.58,0,1,1,4.57-4.58A4.58,4.58,0,0,1,7.92,60.82Z"/></g><path class="cls-1" d="M205.67,36.06v.36c0,.09,0,.14-.15.14h-3s-.06,0-.06,0v8.65c0,.09-.05.14-.15.14h-.5c-.1,0-.15,0-.15-.14V36.61s0,0-.06,0h-2.85c-.1,0-.15-.05-.15-.14v-.36c0-.09.05-.14.15-.14h6.77C205.62,35.92,205.67,36,205.67,36.06Z"/><path class="cls-1" d="M214.91,35.92h.51c.1,0,.15,0,.15.14v9.2c0,.09,0,.14-.15.14h-.5c-.1,0-.15,0-.15-.14V37.32s0,0,0,0,0,0,0,0L212.06,41a.23.23,0,0,1-.18.09h-.26a.23.23,0,0,1-.18-.09l-2.67-3.67s0,0,0,0a.05.05,0,0,0,0,.05v7.92c0,.09,0,.14-.15.14h-.5c-.1,0-.15,0-.15-.14v-9.2c0-.09,0-.14.15-.14h.53a.21.21,0,0,1,.18.1l2.94,4.06h.09L214.73,36A.21.21,0,0,1,214.91,35.92Z"/></g></g></g></svg>